<?xml version="1.0" encoding="utf-8"?>
<!-- Generator: Adobe Illustrator 18.0.0, SVG Export Plug-In . SVG Version: 6.00 Build 0)  -->
<!DOCTYPE svg PUBLIC "-//W3C//DTD SVG 1.1//EN" "http://www.w3.org/Graphics/SVG/1.1/DTD/svg11.dtd">
<svg version="1.1" id="Layer_1" xmlns="http://www.w3.org/2000/svg" xmlns:xlink="http://www.w3.org/1999/xlink" x="0px" y="0px"
	 viewBox="0 0 849.9 849.9" enable-background="new 0 0 849.9 849.9" xml:space="preserve">
<g>
	<polygon opacity="0.4" fill="#FFFFFF" points="849.9,423.8 436.9,423.8 436.6,423.8 843.8,352 843.5,350.2 436.1,422.1 825,280.5 
		824.4,278.9 435.7,420.3 794,213.4 793.2,211.9 434.9,418.7 751.9,152.8 750.8,151.4 433.9,417.3 699.9,100.3 698.6,99.2 
		432.7,416 639.6,57.7 638.1,56.8 431.3,415 572.8,26.2 571.1,25.6 429.7,414.3 501.5,6.8 499.8,6.4 428,413.8 428,0 426.2,0 
		426.2,413.6 354.3,6.1 352.6,6.4 424.4,413.8 282.9,24.9 281.3,25.5 422.7,414.2 215.8,55.9 214.3,56.7 421.1,415 155.1,98 
		153.8,99.1 419.7,416 102.7,150 101.6,151.3 418.4,417.2 60.1,210.3 59.2,211.8 417.4,418.7 28.6,277.1 28,278.8 416.6,420.2 
		9.1,348.4 8.8,350.1 426.2,423.7 426.2,423.7 426.2,423.7 426.2,423.7 426.2,423.7 426.2,423.7 426.2,423.7 426.2,423.8 
		426.2,423.8 426.2,423.8 426.2,423.8 426.2,423.8 426.2,423.8 426.2,423.8 426.2,423.8 426.2,423.8 426.1,423.8 0,423.8 0,425.6 
		416.2,425.6 6.5,497.8 6.8,499.5 416.6,427.3 25.7,569.6 26.3,571.2 417.4,428.9 57.1,636.9 58,638.4 418.4,430.3 99.7,697.7 
		100.9,699.1 419.7,431.6 152.3,750.2 153.6,751.4 421.1,432.6 213.1,792.8 214.6,793.7 422.7,433.3 280.4,824.2 282.1,824.8 
		424.4,433.7 352.2,843.4 353.9,843.7 426.2,433.9 426.2,849.9 428,849.9 428,433.7 500.2,843.4 501.9,843.1 429.7,433.3 
		571.9,824.2 573.6,823.6 431.3,432.5 639.3,792.8 640.8,791.9 432.7,431.5 700.1,750.2 701.4,749 433.9,430.2 752.6,697.6 
		753.7,696.3 434.9,428.8 795.2,636.8 796.1,635.3 435.7,427.2 826.6,569.5 827.2,567.8 436.4,425.6 436.7,425.6 845.8,497.7 
		846.1,496 446.8,425.6 849.9,425.6 	"/>
	<polygon opacity="0.2" fill="#FFFFFF" points="806.5,454.6 806.6,453.1 444.7,423.7 804.1,390 803.9,388.4 435.6,422.9 
		435.4,422.9 792.4,324.8 792,323.3 434.8,421.4 769.7,262.7 769,261.3 434.3,419.9 736.5,205.5 735.6,204.2 433.5,418.6 
		693.9,154.9 692.8,153.8 432.5,417.4 643.1,112.5 641.8,111.6 431.3,416.3 585.8,79.5 584.3,78.9 429.9,415.6 523.6,57 522,56.6 
		428.4,415 458.4,45.6 456.8,45.5 426.8,414.7 392.2,45.8 390.7,45.9 425.3,414.7 327.1,57.4 325.6,57.8 423.7,415 265,80.1 
		263.6,80.8 422.2,415.6 207.8,113.3 206.5,114.2 420.8,416.4 157.2,156 156.1,157.1 419.6,417.4 114.7,206.7 113.8,208 
		418.6,418.6 81.8,264.1 81.1,265.5 417.8,420 59.3,326.3 58.9,327.8 417.3,421.4 47.9,391.5 47.8,393 426.1,423.7 426.1,423.7 
		426.1,423.7 426.1,423.8 426.1,423.8 426.1,423.8 426.1,423.8 426.1,423.8 426.1,423.8 426.1,423.8 426.1,423.8 426.1,423.8 
		426.1,423.8 426.1,423.8 426.1,423.8 426.1,423.8 426.1,423.8 46.1,459.5 46.2,461 417.3,426.2 58.1,524.9 58.5,526.4 417.9,427.7 
		81.2,587.3 81.9,588.7 418.7,429.1 114.8,644.7 115.7,646 419.7,430.3 157.9,695.4 159,696.5 420.9,431.3 209.2,737.8 210.4,738.7 
		422.3,432.1 267,770.7 268.4,771.4 423.8,432.6 329.6,793.1 331.2,793.4 425.4,432.8 395.2,804.2 396.8,804.3 427,432.8 
		461.7,803.8 463.3,803.6 428.5,432.5 527.2,791.8 528.7,791.4 430,432 589.6,768.6 591,768 431.3,431.2 647,735 648.2,734.1 
		432.5,430.1 697.6,691.9 698.7,690.8 433.6,428.9 740.1,640.7 741,639.4 434.3,427.5 773,582.9 773.6,581.4 434.8,426 795.3,520.2 
		795.7,518.7 435.4,424.5 435.6,424.5 	"/>
</g>
</svg>
