<?xml version="1.0" encoding="utf-8"?>
<!-- Generator: Adobe Illustrator 18.0.0, SVG Export Plug-In . SVG Version: 6.00 Build 0)  -->
<!DOCTYPE svg PUBLIC "-//W3C//DTD SVG 1.1//EN" "http://www.w3.org/Graphics/SVG/1.1/DTD/svg11.dtd">
<svg version="1.1" id="Layer_1" xmlns="http://www.w3.org/2000/svg" xmlns:xlink="http://www.w3.org/1999/xlink" x="0px" y="0px"
	 viewBox="0 0 17.5 14.2" enable-background="new 0 0 17.5 14.2" xml:space="preserve">
<path fill="#FFFFFF" d="M17.5,1.7c-0.7,0.3-1.3,0.5-2.1,0.6c0.7-0.4,1.3-1.2,1.6-2c-0.7,0.4-1.5,0.7-2.3,0.9
	C13.4-0.3,11.1-0.4,9.7,1c-0.9,0.9-1.3,2.2-1,3.4C5.7,4.3,3,2.9,1.2,0.7C0.9,1.2,0.7,1.8,0.7,2.5c0,1.2,0.6,2.3,1.6,3
	C1.8,5.4,1.2,5.3,0.7,5v0c0,1.7,1.2,3.2,2.9,3.5C3.1,8.7,2.5,8.7,2,8.6c0.5,1.5,1.8,2.5,3.3,2.5c-1.3,1-2.8,1.5-4.5,1.5
	c-0.3,0-0.6,0-0.9-0.1c1.6,1.1,3.5,1.6,5.5,1.6c6.6,0,10.2-5.5,10.2-10.2c0-0.2,0-0.3,0-0.5C16.4,3,17,2.4,17.5,1.7"/>
</svg>
