<?xml version="1.0" encoding="utf-8"?>
<!-- Generator: Adobe Illustrator 18.0.0, SVG Export Plug-In . SVG Version: 6.00 Build 0)  -->
<!DOCTYPE svg PUBLIC "-//W3C//DTD SVG 1.1//EN" "http://www.w3.org/Graphics/SVG/1.1/DTD/svg11.dtd">
<svg version="1.1" id="Layer_1" xmlns="http://www.w3.org/2000/svg" xmlns:xlink="http://www.w3.org/1999/xlink" x="0px" y="0px"
	 viewBox="0 0 14.6 14.6" enable-background="new 0 0 14.6 14.6" xml:space="preserve">
<g id="Symbols_6_">
	<g id="Footer-_x2F_-Desktop_6_" transform="translate(-1074.000000, -184.000000)">
		<g id="Trailer_6_" transform="translate(0.000000, -1.000000)">
			<g id="Group-25_6_" transform="translate(814.000000, 185.000000)">
				<g id="Group-23_6_">
					<g id="instagram_3_" transform="translate(260.000000, 0.000000)">
						<path id="Shape_6_" fill="#FFFFFF" d="M7.3,1.3c1.9,0,2.2,0,2.9,0c2,0.1,2.9,1,3,3c0,0.8,0,1,0,2.9c0,1.9,0,2.2,0,2.9
							c-0.1,2-1,2.9-3,3c-0.8,0-1,0-2.9,0c-1.9,0-2.2,0-2.9,0c-2-0.1-2.9-1-3-3c0-0.8,0-1,0-2.9c0-1.9,0-2.2,0-2.9c0.1-2,1-2.9,3-3
							C5.1,1.3,5.3,1.3,7.3,1.3L7.3,1.3z M7.3,0c-2,0-2.2,0-3,0C1.6,0.2,0.2,1.6,0,4.3c0,0.8,0,1,0,3s0,2.2,0,3
							c0.1,2.6,1.6,4.1,4.2,4.2c0.8,0,1,0,3,0s2.2,0,3,0c2.6-0.1,4.1-1.6,4.2-4.2c0-0.8,0-1,0-3s0-2.2,0-3c-0.1-2.6-1.6-4.1-4.2-4.2
							C9.5,0,9.3,0,7.3,0z M7.3,3.5c-2.1,0-3.7,1.7-3.7,3.7S5.2,11,7.3,11S11,9.3,11,7.3C11,5.2,9.3,3.5,7.3,3.5z M7.3,9.7
							c-1.3,0-2.4-1.1-2.4-2.4c0-1.3,1.1-2.4,2.4-2.4s2.4,1.1,2.4,2.4C9.7,8.6,8.6,9.7,7.3,9.7z M11.2,2.5c-0.5,0-0.9,0.4-0.9,0.9
							s0.4,0.9,0.9,0.9c0.5,0,0.9-0.4,0.9-0.9S11.7,2.5,11.2,2.5z"/>
					</g>
				</g>
			</g>
		</g>
	</g>
</g>
</svg>
