<?xml version="1.0" encoding="utf-8"?>
<!-- Generator: Adobe Illustrator 18.0.0, SVG Export Plug-In . SVG Version: 6.00 Build 0)  -->
<!DOCTYPE svg PUBLIC "-//W3C//DTD SVG 1.1//EN" "http://www.w3.org/Graphics/SVG/1.1/DTD/svg11.dtd">
<svg version="1.1" id="Layer_1" xmlns="http://www.w3.org/2000/svg" xmlns:xlink="http://www.w3.org/1999/xlink" x="0px" y="0px"
	 viewBox="0 0 14.5 14.5" enable-background="new 0 0 14.5 14.5" xml:space="preserve">
<path fill="#FFFFFF" d="M13.7,14.5H0.8c-0.4,0-0.8-0.4-0.8-0.8V0.8C0,0.4,0.4,0,0.8,0h12.9c0.4,0,0.8,0.4,0.8,0.8v12.9
	C14.5,14.2,14.2,14.5,13.7,14.5L13.7,14.5z M10,14.5V8.9h1.9l0.3-2.2H10V5.3c0-0.6,0.2-1.1,1.1-1.1h1.2v-2c-0.6-0.1-1.1-0.1-1.7-0.1
	c-1.7,0-2.8,1-2.8,2.9v1.6H5.9v2.2h1.9v5.6H10z"/>
</svg>
